<svg width="50" height="50" viewBox="0 0 50 50" fill="none" xmlns="http://www.w3.org/2000/svg">
<g clip-path="url(#clip0_7_384)">
<path fill-rule="evenodd" clip-rule="evenodd" d="M1.04604 1.04604C2.44079 -0.348679 4.70208 -0.348679 6.09683 1.04604L25 19.9493L43.9033 1.04604C45.2979 -0.348679 47.5594 -0.348679 48.954 1.04604C50.3487 2.44079 50.3487 4.70208 48.954 6.09683L30.0508 25L48.954 43.9033C50.3487 45.2979 50.3487 47.5594 48.954 48.954C47.5594 50.3487 45.2979 50.3487 43.9033 48.954L25 30.0508L6.09683 48.954C4.70208 50.3487 2.44079 50.3487 1.04604 48.954C-0.348679 47.5594 -0.348679 45.2979 1.04604 43.9033L19.9493 25L1.04604 6.09683C-0.348679 4.70208 -0.348679 2.44079 1.04604 1.04604Z" fill="#EBEBEB"/>
</g>
<defs>
<clipPath id="clip0_7_384">
<rect width="50" height="50" fill="white"/>
</clipPath>
</defs>
</svg>
