<svg width="50" height="50" viewBox="0 0 50 50" fill="none" xmlns="http://www.w3.org/2000/svg">
<path d="M2.34375 31.25C1.9125 31.25 1.5625 30.9 1.5625 30.4688V5.46875C1.5625 4.17656 2.61406 3.125 3.90625 3.125H46.0938C47.3859 3.125 48.4375 4.17656 48.4375 5.46875V7.8125C48.4375 8.24375 48.0875 8.59375 47.6562 8.59375C47.225 8.59375 46.875 8.24375 46.875 7.8125V5.46875C46.875 5.03906 46.5234 4.6875 46.0938 4.6875H3.90625C3.47656 4.6875 3.125 5.03906 3.125 5.46875V30.4688C3.125 30.9 2.775 31.25 2.34375 31.25Z" fill="#263238"/>
<path d="M25 48.4375H16.4062C15.975 48.4375 15.625 48.0875 15.625 47.6562C15.625 47.225 15.975 46.875 16.4062 46.875H17.9688C19.2609 46.875 20.3125 45.8234 20.3125 44.5312V40.625C20.3125 40.1938 20.6625 39.8438 21.0938 39.8438C21.525 39.8438 21.875 40.1938 21.875 40.625V44.5312C21.875 45.4109 21.5828 46.2219 21.0922 46.875H25C25.4312 46.875 25.7812 47.225 25.7812 47.6562C25.7812 48.0875 25.4312 48.4375 25 48.4375Z" fill="#263238"/>
<path d="M24.2188 40.625H3.90625C2.61406 40.625 1.5625 39.5734 1.5625 38.2812V33.5938C1.5625 33.1625 1.9125 32.8125 2.34375 32.8125H24.2188C24.65 32.8125 25 33.1625 25 33.5938C25 34.025 24.65 34.375 24.2188 34.375H3.125V38.2812C3.125 38.7109 3.47656 39.0625 3.90625 39.0625H24.2188C24.65 39.0625 25 39.4125 25 39.8438C25 40.275 24.65 40.625 24.2188 40.625Z" fill="#263238"/>
<path d="M33.5938 14.0625H41.4062C41.8375 14.0625 42.1875 13.7125 42.1875 13.2812C42.1875 12.85 41.8375 12.5 41.4062 12.5H33.5938C33.1625 12.5 32.8125 12.85 32.8125 13.2812C32.8125 13.7125 33.1625 14.0625 33.5938 14.0625Z" fill="#263238"/>
<path d="M36.7188 45.3125H38.2812C38.7125 45.3125 39.0625 44.9625 39.0625 44.5312C39.0625 44.1 38.7125 43.75 38.2812 43.75H36.7188C36.2875 43.75 35.9375 44.1 35.9375 44.5312C35.9375 44.9625 36.2875 45.3125 36.7188 45.3125Z" fill="#263238"/>
<path d="M44.5312 48.4375H30.4688C28.3141 48.4375 26.5625 46.6859 26.5625 44.5312V13.2812C26.5625 11.1266 28.3141 9.375 30.4688 9.375H44.5312C46.6859 9.375 48.4375 11.1266 48.4375 13.2812V44.5312C48.4375 46.6859 46.6859 48.4375 44.5312 48.4375ZM30.4688 10.9375C29.1766 10.9375 28.125 11.9891 28.125 13.2812V44.5312C28.125 45.8234 29.1766 46.875 30.4688 46.875H44.5312C45.8234 46.875 46.875 45.8234 46.875 44.5312V13.2812C46.875 11.9891 45.8234 10.9375 44.5312 10.9375H30.4688Z" fill="#263238"/>
</svg>
